<svg width="37" height="56" viewBox="0 0 37 56" fill="none" xmlns="http://www.w3.org/2000/svg">
<g opacity="0.1">
<path opacity="0.1" d="M31.0575 17.1836C31.4622 17.6843 31.9315 18.129 32.4533 18.5061C33.4307 19.2162 34.5574 19.6936 35.7474 19.9019C35.7474 19.9019 35.7474 19.902 35.7474 19.9194V20.2684C34.6705 20.0402 33.6532 19.5898 32.7604 18.9458C32.0968 18.4594 31.5209 17.8635 31.0575 17.1836Z" fill="black"/>
<path opacity="0.1" d="M4.28575 31.0965C4.28575 31.1349 4.28575 31.1767 4.28575 31.2186C4.39451 32.8766 4.59488 34.5274 4.88595 36.1633C5.93281 42.1793 4.56143 54.124 4.36601 55.7746C4.25435 55.7013 4.14268 55.6315 4.01706 55.5512C4.0694 55.1534 5.67808 42.1269 4.56142 35.755C4.27511 34.1248 4.08055 32.4798 3.97867 30.8278C3.97867 30.7859 3.97867 30.744 3.97867 30.7056C3.90937 29.748 3.58528 28.8264 3.03998 28.0361C3.76327 28.9019 4.19873 29.9717 4.28575 31.0965Z" fill="black"/>
<path opacity="0.1" d="M10.7102 0.988575L7.29737 0.922273C7.29472 0.920742 7.29171 0.91993 7.28865 0.91993C7.28559 0.91993 7.28257 0.920742 7.27992 0.922273L2.91798 10.7837C2.15521 12.4906 1.57053 14.2715 1.17321 16.0983C-0.0969875 22.0655 0.702128 25.0385 1.67222 26.5076C0.579993 25.22 -0.547137 22.2853 0.859151 15.69C1.24863 13.8622 1.82754 12.0798 2.58648 10.372L6.97982 0.510498L11.0033 0.590762V0.615191C10.9719 0.657066 10.8637 0.789671 10.7102 0.988575Z" fill="black"/>
<path opacity="0.1" d="M36.4282 3.66504L36.4875 3.68249L36.4282 3.66504Z" fill="black"/>
<path opacity="0.1" d="M35.1751 3.60925L31.7553 2.57984H31.7379C31.5355 2.80317 26.5908 8.28525 22.8744 12.724C19.5524 16.6916 13.7283 16.381 12.3255 16.2414C12.0708 16.2135 11.8125 16.1926 11.5578 16.1751C7.74372 15.9309 6.24322 15.4772 5.74072 14.5141C6.45608 15.212 8.02986 15.561 11.2402 15.7564C11.4985 15.7564 11.7532 15.7948 12.008 15.8192C13.4038 15.9588 19.2348 16.2694 22.5569 12.3052C26.2732 7.86302 31.2214 2.38092 31.4238 2.15759L36.3999 3.66508C35.9994 3.56536 35.583 3.54637 35.1751 3.60925Z" fill="black"/>
</g>
</svg>
